<svg width="300" height="300" viewBox="0 0 300 300" fill="none" xmlns="http://www.w3.org/2000/svg">
<path d="M98 112H212C217.523 112 222 116.477 222 122V140H98V112Z" fill="white"/>
<rect x="156" y="138" width="30.0671" height="68.0727" fill="white"/>
<path d="M144.491 209.388C125.67 211.83 106.513 208.604 89.7503 200.169C72.988 191.735 59.4765 178.524 51.1425 162.419C42.8086 146.314 40.0777 128.138 43.3393 110.482C46.6009 92.8269 55.6884 76.5938 69.3061 64.0976C82.9237 51.6014 100.376 43.4802 119.175 40.892C137.973 38.3039 157.158 41.3809 173.994 49.6843C190.829 57.9878 204.456 71.0937 212.931 87.1332C221.405 103.173 224.295 121.327 221.188 139.007L192.705 134.553C194.817 122.532 192.852 110.188 187.09 99.283C181.328 88.3775 172.063 79.4666 160.617 73.821C149.17 68.1753 136.126 66.0832 123.344 67.843C110.563 69.6027 98.6968 75.1244 89.438 83.6207C80.1792 92.1171 74.0004 103.154 71.7828 115.158C69.5652 127.162 71.422 139.521 77.0884 150.471C82.7547 161.421 91.9414 170.403 103.338 176.138C114.735 181.872 127.761 184.066 140.557 182.406L144.491 209.388Z" fill="white"/>
<path d="M147.845 208.892C129.135 212 109.862 209.457 92.7755 201.623C75.6885 193.79 61.6595 181.067 52.689 165.27C43.7185 149.472 40.2645 131.406 42.8195 113.647C45.3744 95.8886 53.8079 79.3443 66.9174 66.3736C80.0269 53.4028 97.143 44.6678 115.825 41.4141C134.507 38.1604 153.801 40.5542 170.956 48.2541C188.111 55.954 202.251 68.5669 211.359 84.2942C220.468 100.022 224.08 118.06 221.68 135.838L193.039 132.398C194.671 120.311 192.215 108.046 186.022 97.3527C179.829 86.6595 170.215 78.0838 158.551 72.8485C146.887 67.6133 133.769 65.9857 121.067 68.1979C108.365 70.4101 96.7273 76.3492 87.8139 85.1682C78.9006 93.9872 73.1666 105.236 71.4294 117.31C69.6922 129.385 72.0407 141.668 78.1399 152.409C84.239 163.15 93.7775 171.8 105.395 177.126C117.013 182.452 130.116 184.182 142.838 182.069L147.845 208.892Z" fill="white"/>
<path d="M193.02 154.233C204.261 150.356 216.519 149.955 228.018 153.088C239.517 156.221 249.661 162.725 256.98 171.658C264.3 180.591 268.416 191.49 268.732 202.777C269.048 214.064 265.548 225.153 258.738 234.439C251.929 243.724 242.163 250.724 230.856 254.425C219.548 258.126 207.285 258.336 195.842 255.025C184.4 251.714 174.371 245.053 167.208 236.007C160.046 226.961 156.121 215.999 156.003 204.709L185.992 204.428C186.048 209.712 187.885 214.843 191.237 219.076C194.589 223.31 199.283 226.427 204.638 227.977C209.993 229.527 215.732 229.429 221.025 227.696C226.317 225.964 230.887 222.688 234.074 218.342C237.261 213.997 238.899 208.807 238.751 203.525C238.603 198.242 236.677 193.141 233.251 188.96C229.826 184.779 225.078 181.735 219.696 180.269C214.315 178.803 208.578 178.991 203.317 180.805L193.02 154.233Z" fill="white"/>
</svg>
