<svg width="150" height="150" viewBox="0 0 150 150" fill="none" xmlns="http://www.w3.org/2000/svg">
<path d="M49 56H101C106.523 56 111 60.4772 111 66V70H49V56Z" fill="#164863"/>
<rect x="78" y="70" width="15.0336" height="34.0364" fill="#164863"/>
<path d="M72.2453 104.694C62.835 105.915 53.2563 104.302 44.8752 100.085C36.494 95.8676 29.7382 89.2618 25.5713 81.2093C21.4043 73.1568 20.0388 64.0688 21.6696 55.2411C23.3004 46.4135 27.8442 38.2969 34.653 32.0488C41.4618 25.8007 50.1881 21.7401 59.5874 20.446C68.9867 19.1519 78.5792 20.6904 86.9969 24.8422C95.4147 28.9939 102.228 35.5469 106.465 43.5666C110.703 51.5864 112.148 60.6635 110.594 69.5035L96.3523 67.2763C97.4086 61.2659 96.4262 55.0942 93.5452 49.6415C90.6642 44.1887 86.0317 39.7333 80.3083 36.9105C74.585 34.0877 68.0629 33.0416 61.6722 33.9215C55.2815 34.8013 49.3484 37.5622 44.719 41.8104C40.0896 46.0585 37.0002 51.5771 35.8914 57.5791C34.7826 63.5812 35.711 69.7603 38.5442 75.2353C41.3774 80.7103 45.9707 85.2016 51.6692 88.0689C57.3676 90.9362 63.8803 92.033 70.2785 91.2029L72.2453 104.694Z" fill="#164863"/>
<path d="M73.9224 104.446C64.5675 106 54.9312 104.728 46.3877 100.812C37.8442 96.895 30.8298 90.5337 26.3445 82.6349C21.8593 74.736 20.1322 65.7029 21.4097 56.8236C22.6872 47.9443 26.904 39.6722 33.4587 33.1868C40.0135 26.7014 48.5715 22.3339 57.9125 20.707C67.2536 19.0802 76.9006 20.2771 85.4781 24.1271C94.0555 27.977 101.125 34.2834 105.68 42.1471C110.234 50.0108 112.04 59.0301 110.84 67.9191L96.5196 66.1991C97.3354 60.1553 96.1074 54.0229 93.011 48.6763C89.9145 43.3297 85.1076 39.0419 79.2756 36.4243C73.4437 33.8066 66.8845 32.9929 60.5335 34.099C54.1824 35.2051 48.3636 38.1746 43.907 42.5841C39.4503 46.9936 36.5833 52.6179 35.7147 58.6551C34.8461 64.6923 36.0203 70.834 39.0699 76.2045C42.1195 81.5751 46.8888 85.9002 52.6976 88.5631C58.5064 91.2261 65.0582 92.0909 71.4188 91.0343L73.9224 104.446Z" fill="#164863"/>
<path d="M96.5098 78.6164C102.131 76.6781 108.259 76.4776 114.009 78.044C119.758 79.6104 124.83 82.8623 128.49 87.329C132.15 91.7957 134.208 97.2452 134.366 102.889C134.524 108.532 132.774 114.077 129.369 118.719C125.964 123.362 121.082 126.862 115.428 128.713C109.774 130.563 103.642 130.668 97.9211 129.013C92.1998 127.357 87.1855 124.026 83.6042 119.503C80.023 114.98 78.0607 109.5 78.0014 103.854L92.9962 103.714C93.024 106.356 93.9424 108.921 95.6185 111.038C97.2945 113.155 99.6413 114.714 102.319 115.489C104.997 116.263 107.866 116.214 110.512 115.348C113.158 114.482 115.444 112.844 117.037 110.671C118.631 108.498 119.45 105.903 119.376 103.262C119.302 100.621 118.339 98.0706 116.626 95.9801C114.913 93.8897 112.539 92.3677 109.848 91.6346C107.157 90.9015 104.289 90.9954 101.658 91.9025L96.5098 78.6164Z" fill="#164863"/>
</svg>
